<?xml version="1.0" encoding="utf-8"?>
<!-- Generator: Adobe Illustrator 16.0.0, SVG Export Plug-In . SVG Version: 6.00 Build 0)  -->
<!DOCTYPE svg PUBLIC "-//W3C//DTD SVG 1.1//EN" "http://www.w3.org/Graphics/SVG/1.1/DTD/svg11.dtd">
<svg version="1.1" id="Capa_1" xmlns="http://www.w3.org/2000/svg" xmlns:xlink="http://www.w3.org/1999/xlink" x="0px" y="0px"
	 width="147px" height="147px" viewBox="0 0 147 147" enable-background="new 0 0 147 147" xml:space="preserve">
<g>
	<path fill="#EC008C" d="M73.5,145.5c-39.701,0-72-32.299-72-72s32.299-72,72-72s72,32.299,72,72S113.201,145.5,73.5,145.5z"/>
	<path fill="#64317B" d="M73.5,3C112.374,3,144,34.626,144,73.5S112.374,144,73.5,144S3,112.374,3,73.5S34.626,3,73.5,3 M73.5,0
		C32.907,0,0,32.907,0,73.5S32.907,147,73.5,147S147,114.093,147,73.5S114.093,0,73.5,0L73.5,0z"/>
</g>
<g>
	<g>
		<g>
			<path fill="#FFFFFF" d="M112.859,53.948l-32.762-0.035c0,0,1.898-7.779,2.24-11.424c0.23-2.492,0.287-4.974-0.285-7.429
				c-0.85-3.692-1.799-5.999-3.311-8.858c-0.811-1.512-2.381-2.455-4.085-2.455h-6.345c-2.555,0-4.622,2.075-4.611,4.63
				c0.018,4.273,0.018,9.976-0.075,10.17c-2.49,5.241-5.376,10.27-8.631,15.068c-1.485,2.196-3.042,4.328-4.85,6.275
				c-0.794,0.849-1.228,1.976-1.228,3.128v40.339c0,1.189,0.463,2.343,1.292,3.201c1.237,1.273,3.448,2.789,7.081,2.789
				c11.462-0.048,30.034-0.15,43.239-0.058c1.65,0.01,3.182-0.857,4.014-2.286l11.645-19.948c0.791-1.384,1.207-2.953,1.217-4.55
				l0.063-23.927C117.471,56.024,115.406,53.958,112.859,53.948z M38.675,60.537h-4.13c-2.545,0-4.611,2.067-4.611,4.614v39.586
				c0,2.547,2.066,4.612,4.611,4.612h4.121c2.545,0,4.611-2.065,4.611-4.612V65.15C43.286,62.604,41.221,60.537,38.675,60.537z"/>
		</g>
	</g>
</g>
<g>
	<g>
		<defs>
			<circle id="SVGID_1_" cx="73.5" cy="73.5" r="73.5"/>
		</defs>
		<clipPath id="SVGID_2_">
			<use xlink:href="#SVGID_1_"  overflow="visible"/>
		</clipPath>
		<polyline opacity="0.12" clip-path="url(#SVGID_2_)" enable-background="new    " points="147,0 147,147 0,147 		"/>
	</g>
</g>
</svg>
