<?xml version="1.0" encoding="utf-8"?>
<!-- Generator: Adobe Illustrator 15.0.0, SVG Export Plug-In . SVG Version: 6.00 Build 0)  -->
<!DOCTYPE svg PUBLIC "-//W3C//DTD SVG 1.1//EN" "http://www.w3.org/Graphics/SVG/1.1/DTD/svg11.dtd">
<svg version="1.1" id="Capa_1" xmlns="http://www.w3.org/2000/svg" xmlns:xlink="http://www.w3.org/1999/xlink" x="0px" y="0px"
	 width="147px" height="147px" viewBox="0 0 147 147" enable-background="new 0 0 147 147" xml:space="preserve">
<g>
	<path fill="#EC008C" d="M73.5,145.5c-39.701,0-72-32.299-72-72s32.299-72,72-72s72,32.299,72,72S113.201,145.5,73.5,145.5z"/>
	<path fill="#64317B" d="M73.5,3C112.374,3,144,34.626,144,73.5S112.374,144,73.5,144S3,112.374,3,73.5S34.626,3,73.5,3 M73.5,0
		C32.907,0,0,32.907,0,73.5S32.907,147,73.5,147S147,114.093,147,73.5S114.093,0,73.5,0L73.5,0z"/>
</g>
<g>
	<g>
		<path fill="#FFFFFF" d="M83.073,100.337c-1.82,0-3.649-0.424-5.29-1.227L73.5,97.015l-4.285,2.097
			c-1.64,0.802-3.469,1.225-5.29,1.225c-4.016,0-7.71-1.983-9.938-5.248v22.591c0,1.392,0.721,2.684,1.904,3.417
			c0.645,0.398,1.377,0.6,2.111,0.6c0.613,0,1.229-0.141,1.795-0.423l13.702-6.851l13.701,6.85c1.245,0.622,2.723,0.556,3.907-0.176
			c1.184-0.731,1.904-2.024,1.904-3.417V95.09C90.782,98.354,87.088,100.337,83.073,100.337z M107.379,61.596
			c0.753-0.778,1.13-1.786,1.13-2.793c0-1.007-0.377-2.014-1.13-2.792l-6.047-6.253l1.218-8.612c0.02-0.134,0.031-0.268,0.037-0.4
			c0.083-1.989-1.318-3.769-3.319-4.119l-8.566-1.502l-4.078-7.687c-0.058-0.107-0.12-0.21-0.185-0.31
			c-0.018-0.026-0.034-0.051-0.052-0.077c-0.056-0.082-0.114-0.161-0.175-0.237c-0.014-0.017-0.026-0.035-0.04-0.051
			c-0.074-0.09-0.152-0.176-0.233-0.259c-0.017-0.018-0.035-0.034-0.053-0.051c-0.067-0.066-0.138-0.13-0.209-0.191
			c-0.021-0.018-0.043-0.036-0.064-0.054c-0.09-0.073-0.181-0.143-0.275-0.207c-0.005-0.003-0.01-0.006-0.015-0.009
			c-0.09-0.061-0.184-0.117-0.277-0.17c-0.024-0.014-0.05-0.027-0.074-0.04c-0.089-0.048-0.18-0.092-0.272-0.133
			c-0.012-0.005-0.024-0.012-0.036-0.017c-0.105-0.045-0.213-0.085-0.32-0.121c-0.023-0.008-0.046-0.014-0.069-0.021
			c-0.09-0.028-0.182-0.054-0.274-0.075c-0.023-0.006-0.046-0.012-0.07-0.017c-0.112-0.024-0.225-0.044-0.339-0.059
			c-0.012-0.002-0.024-0.002-0.036-0.004c-0.102-0.012-0.204-0.02-0.307-0.024c-0.028-0.001-0.056-0.002-0.084-0.002
			c-0.029-0.001-0.06-0.003-0.089-0.003c-0.036,0-0.072,0.005-0.107,0.006c-0.084,0.002-0.166,0.006-0.249,0.014
			c-0.059,0.005-0.116,0.012-0.174,0.02c-0.084,0.011-0.166,0.026-0.249,0.042c-0.057,0.011-0.113,0.022-0.169,0.036
			c-0.088,0.021-0.175,0.048-0.263,0.076c-0.05,0.016-0.1,0.029-0.149,0.048c-0.121,0.044-0.241,0.094-0.36,0.15
			c-0.013,0.007-0.027,0.011-0.04,0.018L73.5,29.532l-7.813-3.819c-0.014-0.007-0.028-0.011-0.041-0.018
			c-0.118-0.056-0.237-0.106-0.358-0.15c-0.052-0.019-0.104-0.033-0.155-0.049c-0.085-0.027-0.17-0.053-0.255-0.074
			c-0.059-0.015-0.117-0.026-0.176-0.037c-0.08-0.016-0.16-0.03-0.24-0.041c-0.062-0.008-0.122-0.015-0.183-0.021
			c-0.079-0.007-0.158-0.011-0.238-0.013c-0.038-0.001-0.076-0.006-0.114-0.006c-0.032,0-0.063,0.002-0.095,0.003
			c-0.023,0-0.047,0.001-0.069,0.002c-0.111,0.004-0.223,0.013-0.333,0.026c-0.004,0-0.008,0.001-0.013,0.001
			c-0.118,0.016-0.235,0.037-0.351,0.062c-0.018,0.003-0.035,0.008-0.052,0.012c-0.101,0.023-0.201,0.051-0.3,0.082
			c-0.016,0.005-0.032,0.01-0.049,0.016c-0.112,0.037-0.224,0.079-0.333,0.125c-0.004,0.002-0.008,0.004-0.013,0.006
			c-0.102,0.044-0.201,0.094-0.3,0.146c-0.019,0.01-0.038,0.021-0.057,0.031c-0.204,0.114-0.398,0.246-0.582,0.396
			c-0.017,0.014-0.033,0.028-0.05,0.042c-0.078,0.066-0.154,0.135-0.228,0.207c-0.013,0.013-0.026,0.025-0.039,0.039
			c-0.083,0.084-0.163,0.173-0.239,0.266c-0.012,0.013-0.021,0.027-0.031,0.04c-0.064,0.08-0.126,0.164-0.185,0.249
			c-0.016,0.023-0.032,0.047-0.048,0.071c-0.065,0.101-0.129,0.204-0.187,0.313l-4.076,7.686l-8.567,1.502
			c-2,0.351-3.401,2.13-3.318,4.119c0.005,0.132,0.018,0.266,0.036,0.4l1.219,8.612l-6.049,6.253
			c-0.671,0.693-1.041,1.568-1.114,2.462c-0.092,1.114,0.279,2.26,1.114,3.124l6.049,6.251v0l-1.219,8.617
			c-0.019,0.134-0.031,0.268-0.036,0.4c-0.083,1.988,1.318,3.767,3.318,4.118l8.568,1.502l4.076,7.685
			c0.719,1.356,2.108,2.135,3.549,2.135c0.594,0,1.195-0.132,1.762-0.409l7.813-3.822l7.812,3.822
			c0.567,0.277,1.169,0.409,1.762,0.409c1.441,0,2.83-0.779,3.55-2.134l4.078-7.685l8.566-1.502c2-0.351,3.401-2.13,3.319-4.118
			c-0.006-0.133-0.018-0.266-0.037-0.4l-1.219-8.617v0L107.379,61.596z M73.5,73.494c-8.119,0-14.725-6.606-14.725-14.727
			c0-8.12,6.605-14.727,14.725-14.727c8.118,0,14.723,6.607,14.723,14.727C88.223,66.888,81.618,73.494,73.5,73.494z"/>
	</g>
</g>
<g>
	<defs>
		<circle id="SVGID_1_" cx="73.5" cy="73.5" r="73.5"/>
	</defs>
	<clipPath id="SVGID_2_">
		<use xlink:href="#SVGID_1_"  overflow="visible"/>
	</clipPath>
	<polyline opacity="0.12" clip-path="url(#SVGID_2_)" points="147,0 147,147 0,147 	"/>
</g>
</svg>
