<?xml version="1.0" encoding="utf-8"?>
<!-- Generator: Adobe Illustrator 15.0.0, SVG Export Plug-In . SVG Version: 6.00 Build 0)  -->
<!DOCTYPE svg PUBLIC "-//W3C//DTD SVG 1.1//EN" "http://www.w3.org/Graphics/SVG/1.1/DTD/svg11.dtd">
<svg version="1.1" id="Capa_1" xmlns="http://www.w3.org/2000/svg" xmlns:xlink="http://www.w3.org/1999/xlink" x="0px" y="0px"
	 width="147px" height="147px" viewBox="0 0 147 147" enable-background="new 0 0 147 147" xml:space="preserve">
<g>
	<path fill="#EC008C" d="M73.5,145.5c-39.701,0-72-32.299-72-72s32.299-72,72-72s72,32.299,72,72S113.201,145.5,73.5,145.5z"/>
	<path fill="#64317B" d="M73.5,3C112.374,3,144,34.626,144,73.5S112.374,144,73.5,144S3,112.374,3,73.5S34.626,3,73.5,3 M73.5,0
		C32.907,0,0,32.907,0,73.5S32.907,147,73.5,147S147,114.093,147,73.5S114.093,0,73.5,0L73.5,0z"/>
</g>
<g>
	<g>
		<path fill="#FFFFFF" d="M75.583,98.206H43.516V45.518c0-1.395,1.14-2.533,2.535-2.533h37.448c1.396,0,2.538,1.138,2.538,2.533
			v11.757h6.438V45.518c0-4.949-4.026-8.969-8.976-8.969H46.051c-4.953,0-8.976,4.02-8.976,8.969v55.921
			c0,4.949,4.023,8.969,8.976,8.969h30.862c-0.676-1.083-1.331-2.52-1.331-4.551V98.206z M67.481,106.736
			c-0.664,0.774-1.609,1.295-2.702,1.295c-1.099,0-2.044-0.521-2.705-1.295c-0.531-0.624-0.892-1.407-0.892-2.298
			c0-1.981,1.612-3.591,3.597-3.591c1.979,0,3.591,1.61,3.591,3.591C68.371,105.33,68.012,106.113,67.481,106.736z M105.324,61.295
			H84.209c-2.535,0-4.601,2.061-4.601,4.597v39.965c0,2.533,2.066,4.594,4.601,4.594h21.115c2.535,0,4.6-2.061,4.6-4.594V65.892
			C109.924,63.356,107.859,61.295,105.324,61.295z M94.762,108.038c-1.269,0-2.297-1.03-2.297-2.301
			c0-1.269,1.028-2.296,2.297-2.296c1.275,0,2.307,1.027,2.307,2.296C97.068,107.007,96.037,108.038,94.762,108.038z
			 M105.093,101.516H84.441V66.124h20.652V101.516z"/>
	</g>
</g>
<g>
	<defs>
		<circle id="SVGID_1_" cx="73.5" cy="73.5" r="73.5"/>
	</defs>
	<clipPath id="SVGID_2_">
		<use xlink:href="#SVGID_1_"  overflow="visible"/>
	</clipPath>
	<polyline opacity="0.12" clip-path="url(#SVGID_2_)" points="147,0 147,147 0,147 	"/>
</g>
</svg>
