<?xml version="1.0" encoding="utf-8"?>
<!-- Generator: Adobe Illustrator 15.0.0, SVG Export Plug-In . SVG Version: 6.00 Build 0)  -->
<!DOCTYPE svg PUBLIC "-//W3C//DTD SVG 1.1//EN" "http://www.w3.org/Graphics/SVG/1.1/DTD/svg11.dtd">
<svg version="1.1" id="Capa_1" xmlns="http://www.w3.org/2000/svg" xmlns:xlink="http://www.w3.org/1999/xlink" x="0px" y="0px"
	 width="147px" height="147px" viewBox="0 0 147 147" enable-background="new 0 0 147 147" xml:space="preserve">
<g>
	<path fill="#EC008C" d="M73.5,145.5c-39.701,0-72-32.299-72-72s32.299-72,72-72s72,32.299,72,72S113.201,145.5,73.5,145.5z"/>
	<path fill="#64317B" d="M73.5,3C112.374,3,144,34.626,144,73.5S112.374,144,73.5,144S3,112.374,3,73.5S34.626,3,73.5,3 M73.5,0
		C32.907,0,0,32.907,0,73.5S32.907,147,73.5,147S147,114.093,147,73.5S114.093,0,73.5,0L73.5,0z"/>
</g>
<path fill="#FFFFFF" d="M28.974,84.689V43.953c0-2.264,1.836-4.099,4.101-4.099h40.727c2.265,0,4.1,1.835,4.1,4.099v40.736
	c0,0.754-0.611,1.366-1.366,1.366H30.341C29.586,86.056,28.974,85.444,28.974,84.689z M61.862,98.645
	c0,4.695-3.808,8.501-8.504,8.501s-8.503-3.806-8.503-8.501c0-4.695,3.807-8.501,8.503-8.501S61.862,93.949,61.862,98.645z
	 M57.61,98.645c0-2.347-1.903-4.25-4.252-4.25c-2.348,0-4.252,1.903-4.252,4.25c0,2.348,1.904,4.251,4.252,4.251
	C55.707,102.896,57.61,100.992,57.61,98.645z M46.035,90.144H26.98c-0.755,0-1.367,0.612-1.367,1.366v4.145
	c0,0.754,0.612,1.366,1.367,1.366h15.273C42.652,94.286,44.033,91.87,46.035,90.144z M106.354,98.645
	c0,4.695-3.808,8.501-8.504,8.501s-8.503-3.806-8.503-8.501c0-4.695,3.807-8.501,8.503-8.501S106.354,93.949,106.354,98.645z
	 M102.102,98.645c0-2.347-1.903-4.25-4.252-4.25c-2.348,0-4.251,1.903-4.251,4.25c0,2.348,1.903,4.251,4.251,4.251
	C100.198,102.896,102.102,100.992,102.102,98.645z M121.387,91.51v4.145c0,0.754-0.612,1.366-1.367,1.366h-11.064
	c-0.791-5.426-5.463-9.61-11.104-9.61c-5.644,0-10.315,4.184-11.106,9.61h-22.28c-0.398-2.735-1.779-5.151-3.781-6.877h21.126
	V51.064c0-1.509,1.224-2.732,2.732-2.732h12.902c3.633,0,7.028,1.804,9.061,4.814l8.318,12.315c1.22,1.807,1.871,3.937,1.871,6.116
	v18.566h3.326C120.774,90.144,121.387,90.755,121.387,91.51z M107.522,65.777l-6.651-9.448c-0.256-0.364-0.673-0.58-1.117-0.58
	H89.379c-0.755,0-1.366,0.611-1.366,1.366v9.448c0,0.754,0.611,1.366,1.366,1.366h17.026
	C107.512,67.93,108.16,66.682,107.522,65.777z"/>
<g>
	<defs>
		<circle id="SVGID_1_" cx="73.5" cy="73.5" r="73.5"/>
	</defs>
	<clipPath id="SVGID_2_">
		<use xlink:href="#SVGID_1_"  overflow="visible"/>
	</clipPath>
	<polyline opacity="0.12" clip-path="url(#SVGID_2_)" points="147,0 147,147 0,147 	"/>
</g>
</svg>
